<svg width="500" height="461" viewBox="0 0 500 461" fill="none" xmlns="http://www.w3.org/2000/svg">
<path d="M428.418 33.3655C474.421 67.3414 502.657 127.6 499.802 183.052C496.947 238.182 462.682 288.185 429.687 332.738C396.691 377.291 364.965 416.075 321.817 438.832C278.669 461.59 224.1 468.321 176.828 451.974C129.555 435.306 89.8975 396.202 54.6812 347.803C19.7822 299.403 -10.6751 242.029 3.60177 198.116C17.8786 153.884 76.5724 123.434 125.748 90.4193C174.924 57.0845 214.899 21.506 266.931 7.08227C318.645 -7.34144 382.415 -0.289835 428.418 33.3655Z" fill="url(#paint0_linear_1_5)"/>
<defs>
<linearGradient id="paint0_linear_1_5" x1="250" y1="0" x2="250" y2="461" gradientUnits="userSpaceOnUse">
<stop stop-color="#D9216A" stop-opacity="0.69"/>
<stop offset="1" stop-color="#CC5AF4" stop-opacity="0.4"/>
</linearGradient>
</defs>
</svg>
